<svg xmlns="http://www.w3.org/2000/svg" xmlns:xlink="http://www.w3.org/1999/xlink" width="300" zoomAndPan="magnify" viewBox="0 0 224.87999 225" height="300" preserveAspectRatio="xMidYMid meet" version="1.0"><defs><g/><clipPath id="cf7842d829"><path d="M 0 0.0585938 L 224.761719 0.0585938 L 224.761719 224.9375 L 0 224.9375 Z M 0 0.0585938 " clip-rule="nonzero"/></clipPath><clipPath id="14f4fcaf55"><path d="M 86.308594 66.976562 L 138.78125 66.976562 L 138.78125 119.449219 L 86.308594 119.449219 Z M 86.308594 66.976562 " clip-rule="nonzero"/></clipPath></defs><g clip-path="url(#cf7842d829)"><path fill="#ffffff" d="M 0 0.0585938 L 224.878906 0.0585938 L 224.878906 224.941406 L 0 224.941406 Z M 0 0.0585938 " fill-opacity="1" fill-rule="nonzero"/><path fill="#005f73" d="M 0 0.0585938 L 224.878906 0.0585938 L 224.878906 224.941406 L 0 224.941406 Z M 0 0.0585938 " fill-opacity="1" fill-rule="nonzero"/></g><g clip-path="url(#14f4fcaf55)"><path fill="#94d2bd" d="M 97.507812 66.976562 C 93.40625 66.976562 90.042969 70.339844 90.042969 74.441406 C 90.042969 76.480469 90.878906 78.335938 92.222656 79.6875 C 88.757812 81.597656 86.308594 85.152344 86.308594 89.367188 L 90.042969 89.367188 C 90.042969 85.226562 93.363281 81.902344 97.507812 81.902344 C 101.648438 81.902344 104.96875 85.226562 104.96875 89.367188 L 108.703125 89.367188 C 108.703125 85.152344 106.253906 81.597656 102.789062 79.6875 C 104.132812 78.335938 104.96875 76.480469 104.96875 74.441406 C 104.96875 70.339844 101.605469 66.976562 97.507812 66.976562 Z M 97.507812 70.707031 C 99.589844 70.707031 101.238281 72.355469 101.238281 74.441406 C 101.238281 76.523438 99.589844 78.171875 97.507812 78.171875 C 95.421875 78.171875 93.773438 76.523438 93.773438 74.441406 C 93.773438 72.355469 95.421875 70.707031 97.507812 70.707031 Z M 112.433594 70.707031 C 110.917969 70.707031 109.433594 70.84375 107.992188 71.113281 L 108.667969 74.78125 C 109.890625 74.554688 111.148438 74.441406 112.433594 74.441406 C 123.792969 74.441406 132.960938 83.609375 132.960938 94.964844 L 136.691406 94.964844 C 136.691406 81.589844 125.808594 70.707031 112.433594 70.707031 Z M 88.175781 94.964844 C 88.175781 96.410156 88.304688 97.824219 88.542969 99.199219 L 88.542969 99.203125 C 90.550781 110.582031 100.503906 119.226562 112.433594 119.226562 L 112.433594 115.492188 C 102.304688 115.492188 93.917969 108.175781 92.222656 98.554688 C 92.015625 97.390625 91.90625 96.191406 91.90625 94.964844 Z M 127.363281 96.832031 C 123.261719 96.832031 119.898438 100.195312 119.898438 104.296875 C 119.898438 106.335938 120.734375 108.191406 122.078125 109.542969 C 118.617188 111.453125 116.167969 115.007812 116.167969 119.226562 L 119.898438 119.226562 C 119.898438 115.082031 123.21875 111.761719 127.363281 111.761719 C 131.507812 111.761719 134.828125 115.082031 134.828125 119.226562 L 138.558594 119.226562 C 138.558594 115.007812 136.109375 111.453125 132.648438 109.542969 C 133.988281 108.191406 134.828125 106.335938 134.828125 104.296875 C 134.828125 100.195312 131.464844 96.832031 127.363281 96.832031 Z M 127.363281 100.5625 C 129.445312 100.5625 131.09375 102.210938 131.09375 104.296875 C 131.09375 106.378906 129.445312 108.027344 127.363281 108.027344 C 125.277344 108.027344 123.628906 106.378906 123.628906 104.296875 C 123.628906 102.210938 125.277344 100.5625 127.363281 100.5625 Z M 127.363281 100.5625 " fill-opacity="1" fill-rule="nonzero"/></g><g fill="#94d2bd" fill-opacity="1"><g transform="translate(64.844534, 155.888327)"><g><path d="M 0.5625 0 L 0.5625 -5.140625 L 2.359375 -5.140625 C 2.703125 -5.140625 3.015625 -5.085938 3.296875 -4.984375 C 3.585938 -4.890625 3.816406 -4.734375 3.984375 -4.515625 C 4.160156 -4.296875 4.25 -4.015625 4.25 -3.671875 C 4.25 -3.304688 4.144531 -3.003906 3.9375 -2.765625 C 3.726562 -2.523438 3.441406 -2.363281 3.078125 -2.28125 L 4.453125 0 L 3.34375 0 L 2.15625 -2.171875 L 1.484375 -2.171875 L 1.484375 0 Z M 2.234375 -2.921875 C 2.546875 -2.921875 2.804688 -2.972656 3.015625 -3.078125 C 3.222656 -3.191406 3.328125 -3.390625 3.328125 -3.671875 C 3.328125 -3.921875 3.226562 -4.097656 3.03125 -4.203125 C 2.832031 -4.316406 2.59375 -4.375 2.3125 -4.375 L 1.484375 -4.375 L 1.484375 -2.921875 Z M 2.234375 -2.921875 "/></g></g></g><g fill="#94d2bd" fill-opacity="1"><g transform="translate(70.525814, 155.888327)"><g><path d="M 4.109375 0 L 0.5625 0 L 0.5625 -5.140625 L 3.96875 -5.140625 L 3.96875 -4.34375 L 1.484375 -4.34375 L 1.484375 -3.03125 L 3.84375 -3.03125 L 3.84375 -2.265625 L 1.484375 -2.265625 L 1.484375 -0.8125 L 4.109375 -0.8125 Z M 4.109375 0 "/></g></g></g><g fill="#94d2bd" fill-opacity="1"><g transform="translate(76.069059, 155.888327)"><g><path d="M 3.0625 0.125 C 2.539062 0.125 2.070312 0.0078125 1.65625 -0.21875 C 1.238281 -0.445312 0.910156 -0.765625 0.671875 -1.171875 C 0.429688 -1.585938 0.3125 -2.0625 0.3125 -2.59375 C 0.3125 -3.125 0.429688 -3.59375 0.671875 -4 C 0.921875 -4.40625 1.253906 -4.71875 1.671875 -4.9375 C 2.097656 -5.164062 2.578125 -5.28125 3.109375 -5.28125 C 3.335938 -5.28125 3.566406 -5.25 3.796875 -5.1875 C 4.035156 -5.125 4.257812 -5.035156 4.46875 -4.921875 C 4.675781 -4.804688 4.847656 -4.660156 4.984375 -4.484375 L 4.28125 -3.9375 C 4.15625 -4.113281 3.984375 -4.242188 3.765625 -4.328125 C 3.546875 -4.421875 3.328125 -4.46875 3.109375 -4.46875 C 2.765625 -4.46875 2.457031 -4.382812 2.1875 -4.21875 C 1.914062 -4.050781 1.703125 -3.820312 1.546875 -3.53125 C 1.398438 -3.25 1.328125 -2.9375 1.328125 -2.59375 C 1.328125 -2.21875 1.398438 -1.882812 1.546875 -1.59375 C 1.691406 -1.3125 1.894531 -1.085938 2.15625 -0.921875 C 2.414062 -0.765625 2.722656 -0.6875 3.078125 -0.6875 C 3.335938 -0.6875 3.578125 -0.738281 3.796875 -0.84375 C 4.015625 -0.957031 4.191406 -1.101562 4.328125 -1.28125 L 5.0625 -0.765625 C 4.820312 -0.472656 4.535156 -0.25 4.203125 -0.09375 C 3.867188 0.0507812 3.488281 0.125 3.0625 0.125 Z M 3.0625 0.125 "/></g></g></g><g fill="#94d2bd" fill-opacity="1"><g transform="translate(82.237066, 155.888327)"><g><path d="M 2.59375 0.125 C 2.195312 0.125 1.84375 0.046875 1.53125 -0.109375 C 1.21875 -0.273438 0.96875 -0.507812 0.78125 -0.8125 C 0.601562 -1.125 0.515625 -1.484375 0.515625 -1.890625 L 0.515625 -5.140625 L 1.4375 -5.140625 L 1.4375 -1.921875 C 1.4375 -1.703125 1.472656 -1.5 1.546875 -1.3125 C 1.617188 -1.132812 1.738281 -0.984375 1.90625 -0.859375 C 2.082031 -0.742188 2.3125 -0.6875 2.59375 -0.6875 C 2.875 -0.6875 3.097656 -0.742188 3.265625 -0.859375 C 3.441406 -0.984375 3.566406 -1.132812 3.640625 -1.3125 C 3.710938 -1.5 3.75 -1.703125 3.75 -1.921875 L 3.75 -5.140625 L 4.671875 -5.140625 L 4.671875 -1.890625 C 4.671875 -1.484375 4.578125 -1.125 4.390625 -0.8125 C 4.210938 -0.507812 3.96875 -0.273438 3.65625 -0.109375 C 3.34375 0.046875 2.988281 0.125 2.59375 0.125 Z M 2.59375 0.125 "/></g></g></g><g fill="#94d2bd" fill-opacity="1"><g transform="translate(88.53584, 155.888327)"><g><path d="M 0.5625 0 L 0.5625 -5.140625 L 2.359375 -5.140625 C 2.703125 -5.140625 3.015625 -5.085938 3.296875 -4.984375 C 3.585938 -4.890625 3.816406 -4.734375 3.984375 -4.515625 C 4.160156 -4.296875 4.25 -4.015625 4.25 -3.671875 C 4.25 -3.304688 4.144531 -3.003906 3.9375 -2.765625 C 3.726562 -2.523438 3.441406 -2.363281 3.078125 -2.28125 L 4.453125 0 L 3.34375 0 L 2.15625 -2.171875 L 1.484375 -2.171875 L 1.484375 0 Z M 2.234375 -2.921875 C 2.546875 -2.921875 2.804688 -2.972656 3.015625 -3.078125 C 3.222656 -3.191406 3.328125 -3.390625 3.328125 -3.671875 C 3.328125 -3.921875 3.226562 -4.097656 3.03125 -4.203125 C 2.832031 -4.316406 2.59375 -4.375 2.3125 -4.375 L 1.484375 -4.375 L 1.484375 -2.921875 Z M 2.234375 -2.921875 "/></g></g></g><g fill="#94d2bd" fill-opacity="1"><g transform="translate(94.21712, 155.888327)"><g><path d="M 1.953125 0.125 C 1.609375 0.125 1.273438 0.0625 0.953125 -0.0625 C 0.640625 -0.1875 0.382812 -0.367188 0.1875 -0.609375 L 0.828125 -1.21875 C 0.960938 -1.039062 1.132812 -0.898438 1.34375 -0.796875 C 1.550781 -0.691406 1.757812 -0.640625 1.96875 -0.640625 C 2.113281 -0.640625 2.253906 -0.664062 2.390625 -0.71875 C 2.535156 -0.78125 2.65625 -0.863281 2.75 -0.96875 C 2.84375 -1.082031 2.890625 -1.226562 2.890625 -1.40625 C 2.890625 -1.570312 2.835938 -1.707031 2.734375 -1.8125 C 2.640625 -1.925781 2.515625 -2.015625 2.359375 -2.078125 C 2.210938 -2.140625 1.992188 -2.210938 1.703125 -2.296875 C 1.453125 -2.378906 1.234375 -2.472656 1.046875 -2.578125 C 0.859375 -2.679688 0.703125 -2.828125 0.578125 -3.015625 C 0.460938 -3.210938 0.40625 -3.460938 0.40625 -3.765625 C 0.40625 -4.097656 0.492188 -4.375 0.671875 -4.59375 C 0.847656 -4.820312 1.078125 -4.992188 1.359375 -5.109375 C 1.648438 -5.222656 1.957031 -5.28125 2.28125 -5.28125 C 2.5625 -5.28125 2.832031 -5.226562 3.09375 -5.125 C 3.363281 -5.03125 3.59375 -4.894531 3.78125 -4.71875 L 3.1875 -4.0625 C 3.09375 -4.195312 2.957031 -4.304688 2.78125 -4.390625 C 2.601562 -4.472656 2.425781 -4.515625 2.25 -4.515625 C 2.09375 -4.515625 1.945312 -4.488281 1.8125 -4.4375 C 1.675781 -4.382812 1.5625 -4.304688 1.46875 -4.203125 C 1.382812 -4.097656 1.34375 -3.96875 1.34375 -3.8125 C 1.34375 -3.65625 1.378906 -3.53125 1.453125 -3.4375 C 1.523438 -3.34375 1.628906 -3.265625 1.765625 -3.203125 C 1.898438 -3.148438 2.082031 -3.085938 2.3125 -3.015625 C 2.613281 -2.921875 2.863281 -2.820312 3.0625 -2.71875 C 3.269531 -2.625 3.445312 -2.472656 3.59375 -2.265625 C 3.75 -2.066406 3.828125 -1.816406 3.828125 -1.515625 C 3.828125 -1.160156 3.742188 -0.859375 3.578125 -0.609375 C 3.410156 -0.359375 3.179688 -0.171875 2.890625 -0.046875 C 2.609375 0.0664062 2.296875 0.125 1.953125 0.125 Z M 1.953125 0.125 "/></g></g></g><g fill="#94d2bd" fill-opacity="1"><g transform="translate(99.498842, 155.888327)"><g><path d="M 3.078125 0.125 C 2.546875 0.125 2.070312 0.0078125 1.65625 -0.21875 C 1.238281 -0.445312 0.910156 -0.765625 0.671875 -1.171875 C 0.429688 -1.585938 0.3125 -2.0625 0.3125 -2.59375 C 0.3125 -3.125 0.429688 -3.59375 0.671875 -4 C 0.910156 -4.40625 1.238281 -4.71875 1.65625 -4.9375 C 2.070312 -5.164062 2.546875 -5.28125 3.078125 -5.28125 C 3.609375 -5.28125 4.082031 -5.164062 4.5 -4.9375 C 4.925781 -4.71875 5.253906 -4.40625 5.484375 -4 C 5.722656 -3.59375 5.84375 -3.125 5.84375 -2.59375 C 5.84375 -2.0625 5.722656 -1.585938 5.484375 -1.171875 C 5.253906 -0.765625 4.925781 -0.445312 4.5 -0.21875 C 4.070312 0.0078125 3.597656 0.125 3.078125 0.125 Z M 3.078125 -0.6875 C 3.421875 -0.6875 3.726562 -0.765625 4 -0.921875 C 4.269531 -1.085938 4.476562 -1.316406 4.625 -1.609375 C 4.78125 -1.898438 4.859375 -2.226562 4.859375 -2.59375 C 4.859375 -2.9375 4.78125 -3.25 4.625 -3.53125 C 4.476562 -3.820312 4.269531 -4.050781 4 -4.21875 C 3.738281 -4.382812 3.429688 -4.46875 3.078125 -4.46875 C 2.734375 -4.46875 2.425781 -4.382812 2.15625 -4.21875 C 1.894531 -4.050781 1.6875 -3.820312 1.53125 -3.53125 C 1.382812 -3.25 1.3125 -2.9375 1.3125 -2.59375 C 1.3125 -2.226562 1.382812 -1.898438 1.53125 -1.609375 C 1.6875 -1.316406 1.894531 -1.085938 2.15625 -0.921875 C 2.425781 -0.765625 2.734375 -0.6875 3.078125 -0.6875 Z M 3.078125 -0.6875 "/></g></g></g><g fill="#94d2bd" fill-opacity="1"><g transform="translate(106.778336, 155.888327)"><g><path d="M 1.953125 0.125 C 1.609375 0.125 1.273438 0.0625 0.953125 -0.0625 C 0.640625 -0.1875 0.382812 -0.367188 0.1875 -0.609375 L 0.828125 -1.21875 C 0.960938 -1.039062 1.132812 -0.898438 1.34375 -0.796875 C 1.550781 -0.691406 1.757812 -0.640625 1.96875 -0.640625 C 2.113281 -0.640625 2.253906 -0.664062 2.390625 -0.71875 C 2.535156 -0.78125 2.65625 -0.863281 2.75 -0.96875 C 2.84375 -1.082031 2.890625 -1.226562 2.890625 -1.40625 C 2.890625 -1.570312 2.835938 -1.707031 2.734375 -1.8125 C 2.640625 -1.925781 2.515625 -2.015625 2.359375 -2.078125 C 2.210938 -2.140625 1.992188 -2.210938 1.703125 -2.296875 C 1.453125 -2.378906 1.234375 -2.472656 1.046875 -2.578125 C 0.859375 -2.679688 0.703125 -2.828125 0.578125 -3.015625 C 0.460938 -3.210938 0.40625 -3.460938 0.40625 -3.765625 C 0.40625 -4.097656 0.492188 -4.375 0.671875 -4.59375 C 0.847656 -4.820312 1.078125 -4.992188 1.359375 -5.109375 C 1.648438 -5.222656 1.957031 -5.28125 2.28125 -5.28125 C 2.5625 -5.28125 2.832031 -5.226562 3.09375 -5.125 C 3.363281 -5.03125 3.59375 -4.894531 3.78125 -4.71875 L 3.1875 -4.0625 C 3.09375 -4.195312 2.957031 -4.304688 2.78125 -4.390625 C 2.601562 -4.472656 2.425781 -4.515625 2.25 -4.515625 C 2.09375 -4.515625 1.945312 -4.488281 1.8125 -4.4375 C 1.675781 -4.382812 1.5625 -4.304688 1.46875 -4.203125 C 1.382812 -4.097656 1.34375 -3.96875 1.34375 -3.8125 C 1.34375 -3.65625 1.378906 -3.53125 1.453125 -3.4375 C 1.523438 -3.34375 1.628906 -3.265625 1.765625 -3.203125 C 1.898438 -3.148438 2.082031 -3.085938 2.3125 -3.015625 C 2.613281 -2.921875 2.863281 -2.820312 3.0625 -2.71875 C 3.269531 -2.625 3.445312 -2.472656 3.59375 -2.265625 C 3.75 -2.066406 3.828125 -1.816406 3.828125 -1.515625 C 3.828125 -1.160156 3.742188 -0.859375 3.578125 -0.609375 C 3.410156 -0.359375 3.179688 -0.171875 2.890625 -0.046875 C 2.609375 0.0664062 2.296875 0.125 1.953125 0.125 Z M 1.953125 0.125 "/></g></g></g><g fill="#94d2bd" fill-opacity="1"><g transform="translate(112.06006, 155.888327)"><g/></g></g><g fill="#94d2bd" fill-opacity="1"><g transform="translate(114.98804, 155.888327)"><g><path d="M 1.484375 0 L 0.5625 0 L 0.5625 -5.140625 L 1.484375 -5.140625 L 1.484375 -3.0625 L 3.890625 -3.0625 L 3.890625 -5.140625 L 4.796875 -5.140625 L 4.796875 0 L 3.890625 0 L 3.890625 -2.28125 L 1.484375 -2.28125 Z M 1.484375 0 "/></g></g></g><g fill="#94d2bd" fill-opacity="1"><g transform="translate(121.468431, 155.888327)"><g><path d="M 2.59375 0.125 C 2.195312 0.125 1.84375 0.046875 1.53125 -0.109375 C 1.21875 -0.273438 0.96875 -0.507812 0.78125 -0.8125 C 0.601562 -1.125 0.515625 -1.484375 0.515625 -1.890625 L 0.515625 -5.140625 L 1.4375 -5.140625 L 1.4375 -1.921875 C 1.4375 -1.703125 1.472656 -1.5 1.546875 -1.3125 C 1.617188 -1.132812 1.738281 -0.984375 1.90625 -0.859375 C 2.082031 -0.742188 2.3125 -0.6875 2.59375 -0.6875 C 2.875 -0.6875 3.097656 -0.742188 3.265625 -0.859375 C 3.441406 -0.984375 3.566406 -1.132812 3.640625 -1.3125 C 3.710938 -1.5 3.75 -1.703125 3.75 -1.921875 L 3.75 -5.140625 L 4.671875 -5.140625 L 4.671875 -1.890625 C 4.671875 -1.484375 4.578125 -1.125 4.390625 -0.8125 C 4.210938 -0.507812 3.96875 -0.273438 3.65625 -0.109375 C 3.34375 0.046875 2.988281 0.125 2.59375 0.125 Z M 2.59375 0.125 "/></g></g></g><g fill="#94d2bd" fill-opacity="1"><g transform="translate(127.767206, 155.888327)"><g><path d="M 1.4375 0 L 0.5625 0 L 0.5625 -5.140625 L 2 -5.140625 L 3.328125 -1.484375 L 3.359375 -1.484375 L 4.671875 -5.140625 L 6.125 -5.140625 L 6.125 0 L 5.203125 0 L 5.203125 -4.140625 L 5.1875 -4.140625 L 3.625 0 L 3 0 L 1.453125 -4.140625 L 1.4375 -4.140625 Z M 1.4375 0 "/></g></g></g><g fill="#94d2bd" fill-opacity="1"><g transform="translate(135.562499, 155.888327)"><g><path d="M 2.171875 -5.140625 L 2.96875 -5.140625 L 5.1875 0 L 4.140625 0 L 3.65625 -1.171875 L 1.4375 -1.171875 L 0.96875 0 L -0.0625 0 Z M 2.546875 -4.046875 L 1.75 -1.96875 L 3.34375 -1.96875 Z M 2.546875 -4.046875 "/></g></g></g><g fill="#94d2bd" fill-opacity="1"><g transform="translate(141.803156, 155.888327)"><g><path d="M 1.484375 0 L 0.5625 0 L 0.5625 -5.140625 L 1.78125 -5.140625 L 4.171875 -1.296875 L 4.1875 -1.296875 L 4.1875 -5.140625 L 5.09375 -5.140625 L 5.09375 0 L 3.9375 0 L 1.5 -3.96875 L 1.484375 -3.96875 Z M 1.484375 0 "/></g></g></g><g fill="#94d2bd" fill-opacity="1"><g transform="translate(148.581398, 155.888327)"><g><path d="M 3.078125 0.125 C 2.546875 0.125 2.070312 0.0078125 1.65625 -0.21875 C 1.238281 -0.445312 0.910156 -0.765625 0.671875 -1.171875 C 0.429688 -1.585938 0.3125 -2.0625 0.3125 -2.59375 C 0.3125 -3.125 0.429688 -3.59375 0.671875 -4 C 0.910156 -4.40625 1.238281 -4.71875 1.65625 -4.9375 C 2.070312 -5.164062 2.546875 -5.28125 3.078125 -5.28125 C 3.609375 -5.28125 4.082031 -5.164062 4.5 -4.9375 C 4.925781 -4.71875 5.253906 -4.40625 5.484375 -4 C 5.722656 -3.59375 5.84375 -3.125 5.84375 -2.59375 C 5.84375 -2.0625 5.722656 -1.585938 5.484375 -1.171875 C 5.253906 -0.765625 4.925781 -0.445312 4.5 -0.21875 C 4.070312 0.0078125 3.597656 0.125 3.078125 0.125 Z M 3.078125 -0.6875 C 3.421875 -0.6875 3.726562 -0.765625 4 -0.921875 C 4.269531 -1.085938 4.476562 -1.316406 4.625 -1.609375 C 4.78125 -1.898438 4.859375 -2.226562 4.859375 -2.59375 C 4.859375 -2.9375 4.78125 -3.25 4.625 -3.53125 C 4.476562 -3.820312 4.269531 -4.050781 4 -4.21875 C 3.738281 -4.382812 3.429688 -4.46875 3.078125 -4.46875 C 2.734375 -4.46875 2.425781 -4.382812 2.15625 -4.21875 C 1.894531 -4.050781 1.6875 -3.820312 1.53125 -3.53125 C 1.382812 -3.25 1.3125 -2.9375 1.3125 -2.59375 C 1.3125 -2.226562 1.382812 -1.898438 1.53125 -1.609375 C 1.6875 -1.316406 1.894531 -1.085938 2.15625 -0.921875 C 2.425781 -0.765625 2.734375 -0.6875 3.078125 -0.6875 Z M 3.078125 -0.6875 "/></g></g></g><g fill="#94d2bd" fill-opacity="1"><g transform="translate(155.860897, 155.888327)"><g><path d="M 1.953125 0.125 C 1.609375 0.125 1.273438 0.0625 0.953125 -0.0625 C 0.640625 -0.1875 0.382812 -0.367188 0.1875 -0.609375 L 0.828125 -1.21875 C 0.960938 -1.039062 1.132812 -0.898438 1.34375 -0.796875 C 1.550781 -0.691406 1.757812 -0.640625 1.96875 -0.640625 C 2.113281 -0.640625 2.253906 -0.664062 2.390625 -0.71875 C 2.535156 -0.78125 2.65625 -0.863281 2.75 -0.96875 C 2.84375 -1.082031 2.890625 -1.226562 2.890625 -1.40625 C 2.890625 -1.570312 2.835938 -1.707031 2.734375 -1.8125 C 2.640625 -1.925781 2.515625 -2.015625 2.359375 -2.078125 C 2.210938 -2.140625 1.992188 -2.210938 1.703125 -2.296875 C 1.453125 -2.378906 1.234375 -2.472656 1.046875 -2.578125 C 0.859375 -2.679688 0.703125 -2.828125 0.578125 -3.015625 C 0.460938 -3.210938 0.40625 -3.460938 0.40625 -3.765625 C 0.40625 -4.097656 0.492188 -4.375 0.671875 -4.59375 C 0.847656 -4.820312 1.078125 -4.992188 1.359375 -5.109375 C 1.648438 -5.222656 1.957031 -5.28125 2.28125 -5.28125 C 2.5625 -5.28125 2.832031 -5.226562 3.09375 -5.125 C 3.363281 -5.03125 3.59375 -4.894531 3.78125 -4.71875 L 3.1875 -4.0625 C 3.09375 -4.195312 2.957031 -4.304688 2.78125 -4.390625 C 2.601562 -4.472656 2.425781 -4.515625 2.25 -4.515625 C 2.09375 -4.515625 1.945312 -4.488281 1.8125 -4.4375 C 1.675781 -4.382812 1.5625 -4.304688 1.46875 -4.203125 C 1.382812 -4.097656 1.34375 -3.96875 1.34375 -3.8125 C 1.34375 -3.65625 1.378906 -3.53125 1.453125 -3.4375 C 1.523438 -3.34375 1.628906 -3.265625 1.765625 -3.203125 C 1.898438 -3.148438 2.082031 -3.085938 2.3125 -3.015625 C 2.613281 -2.921875 2.863281 -2.820312 3.0625 -2.71875 C 3.269531 -2.625 3.445312 -2.472656 3.59375 -2.265625 C 3.75 -2.066406 3.828125 -1.816406 3.828125 -1.515625 C 3.828125 -1.160156 3.742188 -0.859375 3.578125 -0.609375 C 3.410156 -0.359375 3.179688 -0.171875 2.890625 -0.046875 C 2.609375 0.0664062 2.296875 0.125 1.953125 0.125 Z M 1.953125 0.125 "/></g></g></g><g fill="#ffffff" fill-opacity="1"><g transform="translate(52.092681, 144.283072)"><g><path d="M 1.609375 0 L 1.609375 -15.65625 L 7.359375 -15.65625 C 9.210938 -15.65625 10.695312 -15.273438 11.8125 -14.515625 C 12.925781 -13.753906 13.484375 -12.523438 13.484375 -10.828125 C 13.484375 -9.679688 13.203125 -8.738281 12.640625 -8 C 12.085938 -7.257812 11.34375 -6.722656 10.40625 -6.390625 C 9.476562 -6.066406 8.4375 -5.90625 7.28125 -5.90625 L 5.390625 -5.90625 L 5.390625 0 Z M 6.984375 -8.90625 C 7.796875 -8.90625 8.453125 -9.050781 8.953125 -9.34375 C 9.453125 -9.644531 9.703125 -10.132812 9.703125 -10.8125 C 9.703125 -11.5 9.457031 -11.96875 8.96875 -12.21875 C 8.488281 -12.476562 7.847656 -12.609375 7.046875 -12.609375 L 5.390625 -12.609375 L 5.390625 -8.90625 Z M 6.984375 -8.90625 "/></g></g></g><g fill="#ffffff" fill-opacity="1"><g transform="translate(65.666165, 144.283072)"><g><path d="M 9.390625 0.421875 C 7.773438 0.421875 6.320312 0.0703125 5.03125 -0.625 C 3.738281 -1.332031 2.722656 -2.316406 1.984375 -3.578125 C 1.253906 -4.835938 0.890625 -6.273438 0.890625 -7.890625 C 0.890625 -9.523438 1.253906 -10.960938 1.984375 -12.203125 C 2.710938 -13.441406 3.722656 -14.394531 5.015625 -15.0625 C 6.316406 -15.738281 7.773438 -16.078125 9.390625 -16.078125 C 11.023438 -16.078125 12.488281 -15.738281 13.78125 -15.0625 C 15.070312 -14.394531 16.085938 -13.441406 16.828125 -12.203125 C 17.566406 -10.960938 17.9375 -9.523438 17.9375 -7.890625 C 17.9375 -6.273438 17.566406 -4.835938 16.828125 -3.578125 C 16.085938 -2.316406 15.066406 -1.332031 13.765625 -0.625 C 12.472656 0.0703125 11.015625 0.421875 9.390625 0.421875 Z M 9.390625 -3.03125 C 10.265625 -3.03125 11.039062 -3.234375 11.71875 -3.640625 C 12.394531 -4.054688 12.925781 -4.632812 13.3125 -5.375 C 13.695312 -6.125 13.890625 -6.960938 13.890625 -7.890625 C 13.890625 -8.785156 13.695312 -9.597656 13.3125 -10.328125 C 12.925781 -11.066406 12.394531 -11.640625 11.71875 -12.046875 C 11.039062 -12.460938 10.265625 -12.671875 9.390625 -12.671875 C 8.523438 -12.671875 7.753906 -12.460938 7.078125 -12.046875 C 6.398438 -11.640625 5.875 -11.070312 5.5 -10.34375 C 5.125 -9.625 4.9375 -8.804688 4.9375 -7.890625 C 4.9375 -6.960938 5.125 -6.125 5.5 -5.375 C 5.875 -4.632812 6.398438 -4.054688 7.078125 -3.640625 C 7.753906 -3.234375 8.523438 -3.03125 9.390625 -3.03125 Z M 9.390625 -3.03125 "/></g></g></g><g fill="#ffffff" fill-opacity="1"><g transform="translate(83.904247, 144.283072)"><g><path d="M 1.609375 0 L 1.609375 -15.65625 L 7.578125 -15.65625 C 8.671875 -15.65625 9.660156 -15.5 10.546875 -15.1875 C 11.441406 -14.875 12.171875 -14.367188 12.734375 -13.671875 C 13.296875 -12.972656 13.578125 -12.054688 13.578125 -10.921875 C 13.578125 -9.890625 13.285156 -9.003906 12.703125 -8.265625 C 12.128906 -7.523438 11.335938 -7.003906 10.328125 -6.703125 L 14.421875 0 L 10 0 L 6.609375 -6.21875 L 5.328125 -6.21875 L 5.328125 0 Z M 7.09375 -8.953125 C 7.863281 -8.953125 8.515625 -9.085938 9.046875 -9.359375 C 9.578125 -9.628906 9.84375 -10.128906 9.84375 -10.859375 C 9.84375 -11.515625 9.597656 -11.96875 9.109375 -12.21875 C 8.617188 -12.476562 8.019531 -12.609375 7.3125 -12.609375 L 5.3125 -12.609375 L 5.3125 -8.953125 Z M 7.09375 -8.953125 "/></g></g></g><g fill="#ffffff" fill-opacity="1"><g transform="translate(97.986193, 144.283072)"><g><path d="M 8.3125 0 L 4.53125 0 L 4.53125 -12.421875 L 0.109375 -12.421875 L 0.109375 -15.65625 L 12.734375 -15.65625 L 12.734375 -12.421875 L 8.3125 -12.421875 Z M 8.3125 0 "/></g></g></g><g fill="#ffffff" fill-opacity="1"><g transform="translate(110.255357, 144.283072)"><g><path d="M 6.25 -15.65625 L 9.921875 -15.65625 L 16.421875 0 L 12.21875 0 L 11.015625 -3.078125 L 4.953125 -3.078125 L 3.796875 0 L -0.3125 0 Z M 8.03125 -11.46875 L 6.03125 -6.109375 L 9.96875 -6.109375 Z M 8.03125 -11.46875 "/></g></g></g><g fill="#ffffff" fill-opacity="1"><g transform="translate(125.79637, 144.283072)"><g><path d="M 11.46875 0 L 1.609375 0 L 1.609375 -15.65625 L 5.421875 -15.65625 L 5.421875 -3.296875 L 11.46875 -3.296875 Z M 11.46875 0 "/></g></g></g><g fill="#ffffff" fill-opacity="1"><g transform="translate(136.849647, 144.283072)"><g/></g></g><g fill="#ffffff" fill-opacity="1"><g transform="translate(141.801368, 144.283072)"><g><path d="M 1.609375 0 L 1.609375 -15.65625 L 7.578125 -15.65625 C 8.671875 -15.65625 9.660156 -15.5 10.546875 -15.1875 C 11.441406 -14.875 12.171875 -14.367188 12.734375 -13.671875 C 13.296875 -12.972656 13.578125 -12.054688 13.578125 -10.921875 C 13.578125 -9.890625 13.285156 -9.003906 12.703125 -8.265625 C 12.128906 -7.523438 11.335938 -7.003906 10.328125 -6.703125 L 14.421875 0 L 10 0 L 6.609375 -6.21875 L 5.328125 -6.21875 L 5.328125 0 Z M 7.09375 -8.953125 C 7.863281 -8.953125 8.515625 -9.085938 9.046875 -9.359375 C 9.578125 -9.628906 9.84375 -10.128906 9.84375 -10.859375 C 9.84375 -11.515625 9.597656 -11.96875 9.109375 -12.21875 C 8.617188 -12.476562 8.019531 -12.609375 7.3125 -12.609375 L 5.3125 -12.609375 L 5.3125 -8.953125 Z M 7.09375 -8.953125 "/></g></g></g><g fill="#ffffff" fill-opacity="1"><g transform="translate(155.883318, 144.283072)"><g><path d="M 5.390625 0 L 1.609375 0 L 1.609375 -15.65625 L 5.390625 -15.65625 L 5.390625 -9.734375 L 11.5 -9.734375 L 11.5 -15.65625 L 15.28125 -15.65625 L 15.28125 0 L 11.5 0 L 11.5 -6.546875 L 5.390625 -6.546875 Z M 5.390625 0 "/></g></g></g></svg>