<svg xmlns="http://www.w3.org/2000/svg" xmlns:xlink="http://www.w3.org/1999/xlink" width="300" zoomAndPan="magnify" viewBox="0 0 224.87999 225" height="300" preserveAspectRatio="xMidYMid meet" version="1.0"><defs><g/><clipPath id="a0680f3709"><path d="M 0 0.0585938 L 224.761719 0.0585938 L 224.761719 224.9375 L 0 224.9375 Z M 0 0.0585938 " clip-rule="nonzero"/></clipPath><clipPath id="1316f11d92"><path d="M 63.351562 34.785156 L 153.304688 34.785156 L 153.304688 124.738281 L 63.351562 124.738281 Z M 63.351562 34.785156 " clip-rule="nonzero"/></clipPath><clipPath id="7ddeb88a54"><path d="M 63.351562 62 L 130 62 L 130 124.738281 L 63.351562 124.738281 Z M 63.351562 62 " clip-rule="nonzero"/></clipPath></defs><g clip-path="url(#a0680f3709)"><path fill="#ffffff" d="M 0 0.0585938 L 224.878906 0.0585938 L 224.878906 224.941406 L 0 224.941406 Z M 0 0.0585938 " fill-opacity="1" fill-rule="nonzero"/><path fill="#b82328" d="M 0 0.0585938 L 224.878906 0.0585938 L 224.878906 224.941406 L 0 224.941406 Z M 0 0.0585938 " fill-opacity="1" fill-rule="nonzero"/></g><g clip-path="url(#1316f11d92)"><path fill="#b82328" d="M 153.304688 79.761719 C 153.304688 81.234375 153.234375 82.703125 153.089844 84.167969 C 152.945312 85.636719 152.726562 87.089844 152.441406 88.535156 C 152.152344 89.980469 151.796875 91.40625 151.367188 92.816406 C 150.941406 94.226562 150.445312 95.609375 149.882812 96.972656 C 149.316406 98.332031 148.6875 99.664062 147.992188 100.960938 C 147.300781 102.261719 146.542969 103.523438 145.726562 104.746094 C 144.90625 105.972656 144.03125 107.15625 143.097656 108.292969 C 142.160156 109.433594 141.171875 110.523438 140.132812 111.5625 C 139.089844 112.605469 138 113.59375 136.859375 114.527344 C 135.722656 115.460938 134.539062 116.339844 133.316406 117.15625 C 132.089844 117.976562 130.828125 118.730469 129.53125 119.425781 C 128.230469 120.121094 126.902344 120.75 125.539062 121.3125 C 124.179688 121.875 122.792969 122.371094 121.382812 122.800781 C 119.976562 123.226562 118.546875 123.585938 117.101562 123.871094 C 115.660156 124.160156 114.203125 124.375 112.738281 124.519531 C 111.269531 124.664062 109.800781 124.738281 108.328125 124.738281 C 106.855469 124.738281 105.386719 124.664062 103.921875 124.519531 C 102.453125 124.375 101 124.160156 99.554688 123.871094 C 98.109375 123.585938 96.683594 123.226562 95.273438 122.800781 C 93.863281 122.371094 92.476562 121.875 91.117188 121.3125 C 89.757812 120.75 88.425781 120.121094 87.128906 119.425781 C 85.828125 118.730469 84.566406 117.976562 83.339844 117.15625 C 82.117188 116.339844 80.933594 115.460938 79.796875 114.527344 C 78.65625 113.59375 77.566406 112.605469 76.527344 111.5625 C 75.484375 110.523438 74.496094 109.433594 73.5625 108.292969 C 72.628906 107.15625 71.75 105.972656 70.933594 104.746094 C 70.113281 103.523438 69.359375 102.261719 68.664062 100.960938 C 67.96875 99.664062 67.339844 98.332031 66.777344 96.972656 C 66.210938 95.609375 65.71875 94.226562 65.289062 92.816406 C 64.863281 91.40625 64.503906 89.980469 64.21875 88.535156 C 63.929688 87.089844 63.714844 85.636719 63.570312 84.167969 C 63.425781 82.703125 63.351562 81.234375 63.351562 79.761719 C 63.351562 78.289062 63.425781 76.816406 63.570312 75.351562 C 63.714844 73.886719 63.929688 72.429688 64.21875 70.984375 C 64.503906 69.542969 64.863281 68.113281 65.289062 66.703125 C 65.71875 65.296875 66.210938 63.910156 66.777344 62.550781 C 67.339844 61.1875 67.96875 59.859375 68.664062 58.558594 C 69.359375 57.261719 70.113281 55.996094 70.933594 54.773438 C 71.75 53.546875 72.628906 52.367188 73.5625 51.226562 C 74.496094 50.089844 75.484375 49 76.527344 47.957031 C 77.566406 46.917969 78.65625 45.929688 79.796875 44.992188 C 80.933594 44.058594 82.117188 43.183594 83.339844 42.363281 C 84.566406 41.546875 85.828125 40.789062 87.128906 40.09375 C 88.425781 39.402344 89.757812 38.773438 91.117188 38.207031 C 92.476562 37.644531 93.863281 37.148438 95.273438 36.722656 C 96.683594 36.292969 98.109375 35.9375 99.554688 35.648438 C 101 35.363281 102.453125 35.144531 103.921875 35 C 105.386719 34.855469 106.855469 34.785156 108.328125 34.785156 C 109.800781 34.785156 111.269531 34.855469 112.738281 35 C 114.203125 35.144531 115.660156 35.363281 117.101562 35.648438 C 118.546875 35.9375 119.976562 36.292969 121.382812 36.722656 C 122.792969 37.148438 124.179688 37.644531 125.539062 38.207031 C 126.902344 38.773438 128.230469 39.402344 129.53125 40.09375 C 130.828125 40.789062 132.089844 41.546875 133.316406 42.363281 C 134.539062 43.183594 135.722656 44.058594 136.859375 44.992188 C 138 45.929688 139.089844 46.917969 140.132812 47.957031 C 141.171875 49 142.160156 50.089844 143.097656 51.226562 C 144.03125 52.367188 144.90625 53.546875 145.726562 54.773438 C 146.542969 55.996094 147.300781 57.261719 147.992188 58.558594 C 148.6875 59.859375 149.316406 61.1875 149.882812 62.550781 C 150.445312 63.910156 150.941406 65.296875 151.367188 66.703125 C 151.796875 68.113281 152.152344 69.542969 152.441406 70.984375 C 152.726562 72.429688 152.945312 73.886719 153.089844 75.351562 C 153.234375 76.816406 153.304688 78.289062 153.304688 79.761719 Z M 153.304688 79.761719 " fill-opacity="1" fill-rule="nonzero"/></g><path fill="#fefefe" d="M 108.328125 49.460938 C 116.695312 49.460938 124.269531 52.855469 129.75 58.335938 C 135.234375 63.820312 138.628906 71.394531 138.628906 79.761719 C 138.628906 88.125 135.234375 95.699219 129.75 101.183594 C 124.269531 106.667969 116.695312 110.058594 108.328125 110.058594 C 99.964844 110.058594 92.390625 106.667969 86.90625 101.183594 C 81.421875 95.699219 78.03125 88.125 78.03125 79.761719 C 78.03125 71.394531 81.421875 63.820312 86.90625 58.335938 C 92.390625 52.855469 99.964844 49.460938 108.328125 49.460938 Z M 128.085938 60.003906 C 123.023438 54.945312 116.046875 51.824219 108.328125 51.824219 C 100.609375 51.824219 93.632812 54.945312 88.574219 60.003906 C 83.511719 65.0625 80.390625 72.042969 80.390625 79.761719 C 80.390625 87.480469 83.511719 94.457031 88.574219 99.515625 C 93.632812 104.574219 100.609375 107.699219 108.328125 107.699219 C 116.046875 107.699219 123.023438 104.574219 128.085938 99.515625 C 133.144531 94.457031 136.265625 87.480469 136.265625 79.761719 C 136.265625 72.042969 133.144531 65.0625 128.085938 60.003906 Z M 128.085938 60.003906 " fill-opacity="1" fill-rule="nonzero"/><path fill="#ffffff" d="M 88.246094 96.644531 C 90.230469 95.691406 92.523438 94.882812 95.039062 94.253906 C 94.835938 93.511719 94.652344 92.742188 94.480469 91.960938 C 91.800781 92.636719 89.363281 93.503906 87.234375 94.523438 C 86.550781 94.851562 85.894531 95.191406 85.277344 95.554688 C 85.71875 96.203125 86.203125 96.835938 86.703125 97.445312 C 87.195312 97.164062 87.707031 96.90625 88.246094 96.644531 Z M 79.207031 80.9375 C 78.558594 80.9375 78.03125 80.414062 78.03125 79.761719 C 78.03125 79.105469 78.558594 78.585938 79.207031 78.585938 L 93.238281 78.585938 C 93.324219 74.015625 93.910156 69.699219 94.875 65.875 C 94.742188 66.421875 94.605469 66.992188 94.480469 67.558594 C 91.800781 66.886719 89.363281 66.019531 87.234375 64.996094 C 86.550781 64.667969 85.894531 64.332031 85.277344 63.964844 C 85.71875 63.320312 86.203125 62.683594 86.703125 62.078125 C 87.195312 62.355469 87.707031 62.617188 88.246094 62.875 C 90.230469 63.832031 92.523438 64.640625 95.039062 65.265625 C 95.011719 65.363281 94.980469 65.460938 94.960938 65.554688 C 95.617188 63.019531 96.457031 60.699219 97.429688 58.664062 C 100.148438 52.980469 103.992188 49.460938 108.328125 49.460938 C 112.664062 49.460938 116.511719 52.980469 119.226562 58.664062 C 120.203125 60.699219 121.039062 63.019531 121.695312 65.554688 C 121.675781 65.460938 121.648438 65.363281 121.617188 65.265625 C 124.132812 64.640625 126.425781 63.832031 128.414062 62.875 C 128.953125 62.617188 129.460938 62.355469 129.964844 62.078125 C 130.457031 62.683594 130.9375 63.320312 131.378906 63.964844 C 130.765625 64.332031 130.109375 64.667969 129.425781 64.996094 C 127.292969 66.019531 124.855469 66.886719 122.175781 67.558594 C 122.050781 66.992188 121.917969 66.421875 121.78125 65.875 C 122.746094 69.699219 123.332031 74.015625 123.421875 78.585938 L 137.453125 78.585938 C 138.097656 78.585938 138.628906 79.105469 138.628906 79.761719 C 138.628906 80.414062 138.097656 80.9375 137.453125 80.9375 L 123.421875 80.9375 C 123.265625 88.683594 121.695312 95.691406 119.226562 100.855469 C 116.511719 106.542969 112.664062 110.058594 108.328125 110.058594 C 103.992188 110.058594 100.148438 106.542969 97.429688 100.855469 C 94.960938 95.691406 93.390625 88.683594 93.238281 80.9375 Z M 95.597656 78.585938 L 121.058594 78.585938 C 120.980469 74.84375 120.566406 71.300781 119.875 68.082031 C 116.316406 68.792969 112.414062 69.199219 108.328125 69.199219 C 104.242188 69.199219 100.339844 68.792969 96.785156 68.082031 C 96.089844 71.300781 95.675781 74.84375 95.597656 78.585938 Z M 121.058594 80.9375 L 95.597656 80.9375 C 95.675781 84.675781 96.089844 88.222656 96.785156 91.441406 C 100.339844 90.726562 104.242188 90.324219 108.328125 90.324219 C 112.414062 90.324219 116.316406 90.726562 119.875 91.441406 C 120.566406 88.222656 120.980469 84.675781 121.058594 80.9375 Z M 97.332031 93.734375 C 97.941406 95.980469 98.683594 98.042969 99.550781 99.84375 C 101.871094 104.703125 104.976562 107.699219 108.328125 107.699219 C 111.683594 107.699219 114.785156 104.703125 117.109375 99.84375 C 117.976562 98.042969 118.71875 95.980469 119.324219 93.734375 C 115.953125 93.058594 112.230469 92.683594 108.328125 92.683594 C 104.425781 92.683594 100.707031 93.058594 97.332031 93.734375 Z M 94.875 65.875 C 94.90625 65.769531 94.933594 65.660156 94.960938 65.554688 C 94.933594 65.660156 94.90625 65.769531 94.875 65.875 Z M 121.695312 65.554688 C 121.722656 65.660156 121.753906 65.769531 121.78125 65.875 C 121.753906 65.769531 121.722656 65.660156 121.695312 65.554688 Z M 117.109375 59.675781 C 114.785156 54.820312 111.683594 51.824219 108.328125 51.824219 C 104.976562 51.824219 101.871094 54.820312 99.550781 59.675781 C 98.683594 61.480469 97.941406 63.542969 97.332031 65.785156 C 100.707031 66.460938 104.425781 66.835938 108.328125 66.835938 C 112.230469 66.835938 115.953125 66.460938 119.324219 65.785156 C 118.71875 63.542969 117.976562 61.480469 117.109375 59.675781 Z M 122.175781 91.960938 C 122.003906 92.742188 121.820312 93.511719 121.617188 94.253906 C 124.132812 94.882812 126.425781 95.691406 128.414062 96.644531 C 128.953125 96.90625 129.460938 97.164062 129.964844 97.445312 C 130.457031 96.835938 130.9375 96.203125 131.378906 95.554688 C 130.765625 95.191406 130.109375 94.851562 129.425781 94.523438 C 127.292969 93.503906 124.855469 92.636719 122.175781 91.960938 Z M 122.175781 91.960938 " fill-opacity="1" fill-rule="evenodd"/><g clip-path="url(#7ddeb88a54)"><path fill="#8a1719" d="M 108.328125 110.058594 C 99.964844 110.058594 92.390625 106.667969 86.90625 101.183594 C 81.421875 95.699219 78.03125 88.125 78.03125 79.761719 C 78.03125 73.1875 80.121094 67.105469 83.675781 62.144531 L 63.382812 81.167969 C 64.125 105.355469 83.964844 124.738281 108.328125 124.738281 C 108.65625 124.738281 108.984375 124.726562 109.3125 124.726562 L 129.828125 101.105469 C 129.808594 101.136719 129.78125 101.164062 129.75 101.183594 C 124.269531 106.667969 116.695312 110.058594 108.328125 110.058594 Z M 108.328125 110.058594 " fill-opacity="1" fill-rule="evenodd"/></g><g fill="#000000" fill-opacity="1"><g transform="translate(64.066176, 155.888327)"><g><path d="M 3.0625 0.125 C 2.539062 0.125 2.070312 0.0078125 1.65625 -0.21875 C 1.238281 -0.445312 0.910156 -0.765625 0.671875 -1.171875 C 0.429688 -1.585938 0.3125 -2.0625 0.3125 -2.59375 C 0.3125 -3.125 0.429688 -3.59375 0.671875 -4 C 0.921875 -4.40625 1.253906 -4.71875 1.671875 -4.9375 C 2.097656 -5.164062 2.578125 -5.28125 3.109375 -5.28125 C 3.335938 -5.28125 3.566406 -5.25 3.796875 -5.1875 C 4.035156 -5.125 4.257812 -5.035156 4.46875 -4.921875 C 4.675781 -4.804688 4.847656 -4.660156 4.984375 -4.484375 L 4.28125 -3.9375 C 4.15625 -4.113281 3.984375 -4.242188 3.765625 -4.328125 C 3.546875 -4.421875 3.328125 -4.46875 3.109375 -4.46875 C 2.765625 -4.46875 2.457031 -4.382812 2.1875 -4.21875 C 1.914062 -4.050781 1.703125 -3.820312 1.546875 -3.53125 C 1.398438 -3.25 1.328125 -2.9375 1.328125 -2.59375 C 1.328125 -2.21875 1.398438 -1.882812 1.546875 -1.59375 C 1.691406 -1.3125 1.894531 -1.085938 2.15625 -0.921875 C 2.414062 -0.765625 2.722656 -0.6875 3.078125 -0.6875 C 3.335938 -0.6875 3.578125 -0.738281 3.796875 -0.84375 C 4.015625 -0.957031 4.191406 -1.101562 4.328125 -1.28125 L 5.0625 -0.765625 C 4.820312 -0.472656 4.535156 -0.25 4.203125 -0.09375 C 3.867188 0.0507812 3.488281 0.125 3.0625 0.125 Z M 3.0625 0.125 "/></g></g></g><g fill="#000000" fill-opacity="1"><g transform="translate(70.234183, 155.888327)"><g><path d="M 0.5625 0 L 0.5625 -5.140625 L 2.359375 -5.140625 C 2.703125 -5.140625 3.015625 -5.085938 3.296875 -4.984375 C 3.585938 -4.890625 3.816406 -4.734375 3.984375 -4.515625 C 4.160156 -4.296875 4.25 -4.015625 4.25 -3.671875 C 4.25 -3.304688 4.144531 -3.003906 3.9375 -2.765625 C 3.726562 -2.523438 3.441406 -2.363281 3.078125 -2.28125 L 4.453125 0 L 3.34375 0 L 2.15625 -2.171875 L 1.484375 -2.171875 L 1.484375 0 Z M 2.234375 -2.921875 C 2.546875 -2.921875 2.804688 -2.972656 3.015625 -3.078125 C 3.222656 -3.191406 3.328125 -3.390625 3.328125 -3.671875 C 3.328125 -3.921875 3.226562 -4.097656 3.03125 -4.203125 C 2.832031 -4.316406 2.59375 -4.375 2.3125 -4.375 L 1.484375 -4.375 L 1.484375 -2.921875 Z M 2.234375 -2.921875 "/></g></g></g><g fill="#000000" fill-opacity="1"><g transform="translate(75.915463, 155.888327)"><g><path d="M 1.484375 0 L 0.5625 0 L 0.5625 -5.140625 L 1.484375 -5.140625 Z M 1.484375 0 "/></g></g></g><g fill="#000000" fill-opacity="1"><g transform="translate(79.075914, 155.888327)"><g><path d="M 4.109375 0 L 0.5625 0 L 0.5625 -5.140625 L 3.96875 -5.140625 L 3.96875 -4.34375 L 1.484375 -4.34375 L 1.484375 -3.03125 L 3.84375 -3.03125 L 3.84375 -2.265625 L 1.484375 -2.265625 L 1.484375 -0.8125 L 4.109375 -0.8125 Z M 4.109375 0 "/></g></g></g><g fill="#000000" fill-opacity="1"><g transform="translate(84.61916, 155.888327)"><g/></g></g><g fill="#000000" fill-opacity="1"><g transform="translate(87.547138, 155.888327)"><g><path d="M 1.953125 0.125 C 1.609375 0.125 1.273438 0.0625 0.953125 -0.0625 C 0.640625 -0.1875 0.382812 -0.367188 0.1875 -0.609375 L 0.828125 -1.21875 C 0.960938 -1.039062 1.132812 -0.898438 1.34375 -0.796875 C 1.550781 -0.691406 1.757812 -0.640625 1.96875 -0.640625 C 2.113281 -0.640625 2.253906 -0.664062 2.390625 -0.71875 C 2.535156 -0.78125 2.65625 -0.863281 2.75 -0.96875 C 2.84375 -1.082031 2.890625 -1.226562 2.890625 -1.40625 C 2.890625 -1.570312 2.835938 -1.707031 2.734375 -1.8125 C 2.640625 -1.925781 2.515625 -2.015625 2.359375 -2.078125 C 2.210938 -2.140625 1.992188 -2.210938 1.703125 -2.296875 C 1.453125 -2.378906 1.234375 -2.472656 1.046875 -2.578125 C 0.859375 -2.679688 0.703125 -2.828125 0.578125 -3.015625 C 0.460938 -3.210938 0.40625 -3.460938 0.40625 -3.765625 C 0.40625 -4.097656 0.492188 -4.375 0.671875 -4.59375 C 0.847656 -4.820312 1.078125 -4.992188 1.359375 -5.109375 C 1.648438 -5.222656 1.957031 -5.28125 2.28125 -5.28125 C 2.5625 -5.28125 2.832031 -5.226562 3.09375 -5.125 C 3.363281 -5.03125 3.59375 -4.894531 3.78125 -4.71875 L 3.1875 -4.0625 C 3.09375 -4.195312 2.957031 -4.304688 2.78125 -4.390625 C 2.601562 -4.472656 2.425781 -4.515625 2.25 -4.515625 C 2.09375 -4.515625 1.945312 -4.488281 1.8125 -4.4375 C 1.675781 -4.382812 1.5625 -4.304688 1.46875 -4.203125 C 1.382812 -4.097656 1.34375 -3.96875 1.34375 -3.8125 C 1.34375 -3.65625 1.378906 -3.53125 1.453125 -3.4375 C 1.523438 -3.34375 1.628906 -3.265625 1.765625 -3.203125 C 1.898438 -3.148438 2.082031 -3.085938 2.3125 -3.015625 C 2.613281 -2.921875 2.863281 -2.820312 3.0625 -2.71875 C 3.269531 -2.625 3.445312 -2.472656 3.59375 -2.265625 C 3.75 -2.066406 3.828125 -1.816406 3.828125 -1.515625 C 3.828125 -1.160156 3.742188 -0.859375 3.578125 -0.609375 C 3.410156 -0.359375 3.179688 -0.171875 2.890625 -0.046875 C 2.609375 0.0664062 2.296875 0.125 1.953125 0.125 Z M 1.953125 0.125 "/></g></g></g><g fill="#000000" fill-opacity="1"><g transform="translate(92.828859, 155.888327)"><g><path d="M 4.109375 0 L 0.5625 0 L 0.5625 -5.140625 L 3.96875 -5.140625 L 3.96875 -4.34375 L 1.484375 -4.34375 L 1.484375 -3.03125 L 3.84375 -3.03125 L 3.84375 -2.265625 L 1.484375 -2.265625 L 1.484375 -0.8125 L 4.109375 -0.8125 Z M 4.109375 0 "/></g></g></g><g fill="#000000" fill-opacity="1"><g transform="translate(98.372105, 155.888327)"><g><path d="M 2.59375 0.125 C 2.195312 0.125 1.84375 0.046875 1.53125 -0.109375 C 1.21875 -0.273438 0.96875 -0.507812 0.78125 -0.8125 C 0.601562 -1.125 0.515625 -1.484375 0.515625 -1.890625 L 0.515625 -5.140625 L 1.4375 -5.140625 L 1.4375 -1.921875 C 1.4375 -1.703125 1.472656 -1.5 1.546875 -1.3125 C 1.617188 -1.132812 1.738281 -0.984375 1.90625 -0.859375 C 2.082031 -0.742188 2.3125 -0.6875 2.59375 -0.6875 C 2.875 -0.6875 3.097656 -0.742188 3.265625 -0.859375 C 3.441406 -0.984375 3.566406 -1.132812 3.640625 -1.3125 C 3.710938 -1.5 3.75 -1.703125 3.75 -1.921875 L 3.75 -5.140625 L 4.671875 -5.140625 L 4.671875 -1.890625 C 4.671875 -1.484375 4.578125 -1.125 4.390625 -0.8125 C 4.210938 -0.507812 3.96875 -0.273438 3.65625 -0.109375 C 3.34375 0.046875 2.988281 0.125 2.59375 0.125 Z M 2.59375 0.125 "/></g></g></g><g fill="#000000" fill-opacity="1"><g transform="translate(104.670878, 155.888327)"><g/></g></g><g fill="#000000" fill-opacity="1"><g transform="translate(107.598858, 155.888327)"><g><path d="M 1.953125 0.125 C 1.609375 0.125 1.273438 0.0625 0.953125 -0.0625 C 0.640625 -0.1875 0.382812 -0.367188 0.1875 -0.609375 L 0.828125 -1.21875 C 0.960938 -1.039062 1.132812 -0.898438 1.34375 -0.796875 C 1.550781 -0.691406 1.757812 -0.640625 1.96875 -0.640625 C 2.113281 -0.640625 2.253906 -0.664062 2.390625 -0.71875 C 2.535156 -0.78125 2.65625 -0.863281 2.75 -0.96875 C 2.84375 -1.082031 2.890625 -1.226562 2.890625 -1.40625 C 2.890625 -1.570312 2.835938 -1.707031 2.734375 -1.8125 C 2.640625 -1.925781 2.515625 -2.015625 2.359375 -2.078125 C 2.210938 -2.140625 1.992188 -2.210938 1.703125 -2.296875 C 1.453125 -2.378906 1.234375 -2.472656 1.046875 -2.578125 C 0.859375 -2.679688 0.703125 -2.828125 0.578125 -3.015625 C 0.460938 -3.210938 0.40625 -3.460938 0.40625 -3.765625 C 0.40625 -4.097656 0.492188 -4.375 0.671875 -4.59375 C 0.847656 -4.820312 1.078125 -4.992188 1.359375 -5.109375 C 1.648438 -5.222656 1.957031 -5.28125 2.28125 -5.28125 C 2.5625 -5.28125 2.832031 -5.226562 3.09375 -5.125 C 3.363281 -5.03125 3.59375 -4.894531 3.78125 -4.71875 L 3.1875 -4.0625 C 3.09375 -4.195312 2.957031 -4.304688 2.78125 -4.390625 C 2.601562 -4.472656 2.425781 -4.515625 2.25 -4.515625 C 2.09375 -4.515625 1.945312 -4.488281 1.8125 -4.4375 C 1.675781 -4.382812 1.5625 -4.304688 1.46875 -4.203125 C 1.382812 -4.097656 1.34375 -3.96875 1.34375 -3.8125 C 1.34375 -3.65625 1.378906 -3.53125 1.453125 -3.4375 C 1.523438 -3.34375 1.628906 -3.265625 1.765625 -3.203125 C 1.898438 -3.148438 2.082031 -3.085938 2.3125 -3.015625 C 2.613281 -2.921875 2.863281 -2.820312 3.0625 -2.71875 C 3.269531 -2.625 3.445312 -2.472656 3.59375 -2.265625 C 3.75 -2.066406 3.828125 -1.816406 3.828125 -1.515625 C 3.828125 -1.160156 3.742188 -0.859375 3.578125 -0.609375 C 3.410156 -0.359375 3.179688 -0.171875 2.890625 -0.046875 C 2.609375 0.0664062 2.296875 0.125 1.953125 0.125 Z M 1.953125 0.125 "/></g></g></g><g fill="#000000" fill-opacity="1"><g transform="translate(112.880582, 155.888327)"><g><path d="M 1.484375 0 L 0.5625 0 L 0.5625 -5.140625 L 1.484375 -5.140625 Z M 1.484375 0 "/></g></g></g><g fill="#000000" fill-opacity="1"><g transform="translate(116.041035, 155.888327)"><g><path d="M 2.515625 0 L 1.609375 0 L 1.609375 -4.34375 L 0.03125 -4.34375 L 0.03125 -5.140625 L 4.09375 -5.140625 L 4.09375 -4.34375 L 2.515625 -4.34375 Z M 2.515625 0 "/></g></g></g><g fill="#000000" fill-opacity="1"><g transform="translate(121.279171, 155.888327)"><g><path d="M 4.109375 0 L 0.5625 0 L 0.5625 -5.140625 L 3.96875 -5.140625 L 3.96875 -4.34375 L 1.484375 -4.34375 L 1.484375 -3.03125 L 3.84375 -3.03125 L 3.84375 -2.265625 L 1.484375 -2.265625 L 1.484375 -0.8125 L 4.109375 -0.8125 Z M 4.109375 0 "/></g></g></g><g fill="#000000" fill-opacity="1"><g transform="translate(126.822418, 155.888327)"><g/></g></g><g fill="#000000" fill-opacity="1"><g transform="translate(129.750398, 155.888327)"><g><path d="M 2.171875 -5.140625 L 2.96875 -5.140625 L 5.1875 0 L 4.140625 0 L 3.65625 -1.171875 L 1.4375 -1.171875 L 0.96875 0 L -0.0625 0 Z M 2.546875 -4.046875 L 1.75 -1.96875 L 3.34375 -1.96875 Z M 2.546875 -4.046875 "/></g></g></g><g fill="#000000" fill-opacity="1"><g transform="translate(135.991055, 155.888327)"><g><path d="M 3.125 0.125 C 2.582031 0.125 2.097656 0.0078125 1.671875 -0.21875 C 1.242188 -0.445312 0.910156 -0.765625 0.671875 -1.171875 C 0.429688 -1.585938 0.3125 -2.0625 0.3125 -2.59375 C 0.3125 -3.125 0.429688 -3.59375 0.671875 -4 C 0.921875 -4.40625 1.253906 -4.71875 1.671875 -4.9375 C 2.097656 -5.164062 2.578125 -5.28125 3.109375 -5.28125 C 3.503906 -5.28125 3.875 -5.21875 4.21875 -5.09375 C 4.570312 -4.976562 4.851562 -4.820312 5.0625 -4.625 L 4.4375 -3.9375 C 4.300781 -4.09375 4.113281 -4.21875 3.875 -4.3125 C 3.632812 -4.414062 3.378906 -4.46875 3.109375 -4.46875 C 2.765625 -4.46875 2.453125 -4.382812 2.171875 -4.21875 C 1.898438 -4.050781 1.691406 -3.820312 1.546875 -3.53125 C 1.398438 -3.25 1.328125 -2.9375 1.328125 -2.59375 C 1.328125 -2.226562 1.398438 -1.898438 1.546875 -1.609375 C 1.691406 -1.316406 1.90625 -1.085938 2.1875 -0.921875 C 2.46875 -0.765625 2.789062 -0.6875 3.15625 -0.6875 C 3.550781 -0.6875 3.894531 -0.75 4.1875 -0.875 L 4.1875 -2.171875 L 3.109375 -2.171875 L 3.109375 -2.9375 L 5.078125 -2.9375 L 5.078125 -0.265625 C 4.804688 -0.140625 4.507812 -0.046875 4.1875 0.015625 C 3.875 0.0859375 3.519531 0.125 3.125 0.125 Z M 3.125 0.125 "/></g></g></g><g fill="#000000" fill-opacity="1"><g transform="translate(142.71844, 155.888327)"><g><path d="M 3.078125 0.125 C 2.546875 0.125 2.070312 0.0078125 1.65625 -0.21875 C 1.238281 -0.445312 0.910156 -0.765625 0.671875 -1.171875 C 0.429688 -1.585938 0.3125 -2.0625 0.3125 -2.59375 C 0.3125 -3.125 0.429688 -3.59375 0.671875 -4 C 0.910156 -4.40625 1.238281 -4.71875 1.65625 -4.9375 C 2.070312 -5.164062 2.546875 -5.28125 3.078125 -5.28125 C 3.609375 -5.28125 4.082031 -5.164062 4.5 -4.9375 C 4.925781 -4.71875 5.253906 -4.40625 5.484375 -4 C 5.722656 -3.59375 5.84375 -3.125 5.84375 -2.59375 C 5.84375 -2.0625 5.722656 -1.585938 5.484375 -1.171875 C 5.253906 -0.765625 4.925781 -0.445312 4.5 -0.21875 C 4.070312 0.0078125 3.597656 0.125 3.078125 0.125 Z M 3.078125 -0.6875 C 3.421875 -0.6875 3.726562 -0.765625 4 -0.921875 C 4.269531 -1.085938 4.476562 -1.316406 4.625 -1.609375 C 4.78125 -1.898438 4.859375 -2.226562 4.859375 -2.59375 C 4.859375 -2.9375 4.78125 -3.25 4.625 -3.53125 C 4.476562 -3.820312 4.269531 -4.050781 4 -4.21875 C 3.738281 -4.382812 3.429688 -4.46875 3.078125 -4.46875 C 2.734375 -4.46875 2.425781 -4.382812 2.15625 -4.21875 C 1.894531 -4.050781 1.6875 -3.820312 1.53125 -3.53125 C 1.382812 -3.25 1.3125 -2.9375 1.3125 -2.59375 C 1.3125 -2.226562 1.382812 -1.898438 1.53125 -1.609375 C 1.6875 -1.316406 1.894531 -1.085938 2.15625 -0.921875 C 2.425781 -0.765625 2.734375 -0.6875 3.078125 -0.6875 Z M 3.078125 -0.6875 "/></g></g></g><g fill="#000000" fill-opacity="1"><g transform="translate(149.997938, 155.888327)"><g><path d="M 0.5625 0 L 0.5625 -5.140625 L 2.359375 -5.140625 C 2.703125 -5.140625 3.015625 -5.085938 3.296875 -4.984375 C 3.585938 -4.890625 3.816406 -4.734375 3.984375 -4.515625 C 4.160156 -4.296875 4.25 -4.015625 4.25 -3.671875 C 4.25 -3.304688 4.144531 -3.003906 3.9375 -2.765625 C 3.726562 -2.523438 3.441406 -2.363281 3.078125 -2.28125 L 4.453125 0 L 3.34375 0 L 2.15625 -2.171875 L 1.484375 -2.171875 L 1.484375 0 Z M 2.234375 -2.921875 C 2.546875 -2.921875 2.804688 -2.972656 3.015625 -3.078125 C 3.222656 -3.191406 3.328125 -3.390625 3.328125 -3.671875 C 3.328125 -3.921875 3.226562 -4.097656 3.03125 -4.203125 C 2.832031 -4.316406 2.59375 -4.375 2.3125 -4.375 L 1.484375 -4.375 L 1.484375 -2.921875 Z M 2.234375 -2.921875 "/></g></g></g><g fill="#000000" fill-opacity="1"><g transform="translate(155.679221, 155.888327)"><g><path d="M 2.171875 -5.140625 L 2.96875 -5.140625 L 5.1875 0 L 4.140625 0 L 3.65625 -1.171875 L 1.4375 -1.171875 L 0.96875 0 L -0.0625 0 Z M 2.546875 -4.046875 L 1.75 -1.96875 L 3.34375 -1.96875 Z M 2.546875 -4.046875 "/></g></g></g><g fill="#ffffff" fill-opacity="1"><g transform="translate(41.929298, 144.283072)"><g><path d="M 1.609375 0 L 1.609375 -15.65625 L 7.359375 -15.65625 C 9.210938 -15.65625 10.695312 -15.273438 11.8125 -14.515625 C 12.925781 -13.753906 13.484375 -12.523438 13.484375 -10.828125 C 13.484375 -9.679688 13.203125 -8.738281 12.640625 -8 C 12.085938 -7.257812 11.34375 -6.722656 10.40625 -6.390625 C 9.476562 -6.066406 8.4375 -5.90625 7.28125 -5.90625 L 5.390625 -5.90625 L 5.390625 0 Z M 6.984375 -8.90625 C 7.796875 -8.90625 8.453125 -9.050781 8.953125 -9.34375 C 9.453125 -9.644531 9.703125 -10.132812 9.703125 -10.8125 C 9.703125 -11.5 9.457031 -11.96875 8.96875 -12.21875 C 8.488281 -12.476562 7.847656 -12.609375 7.046875 -12.609375 L 5.390625 -12.609375 L 5.390625 -8.90625 Z M 6.984375 -8.90625 "/></g></g></g><g fill="#ffffff" fill-opacity="1"><g transform="translate(55.502782, 144.283072)"><g><path d="M 6.1875 0.390625 C 5.050781 0.390625 3.957031 0.191406 2.90625 -0.203125 C 1.863281 -0.597656 1.003906 -1.148438 0.328125 -1.859375 L 2.8125 -4.375 C 3.1875 -3.882812 3.6875 -3.484375 4.3125 -3.171875 C 4.945312 -2.867188 5.570312 -2.71875 6.1875 -2.71875 C 6.820312 -2.71875 7.34375 -2.851562 7.75 -3.125 C 8.15625 -3.394531 8.359375 -3.828125 8.359375 -4.421875 C 8.359375 -4.804688 8.234375 -5.117188 7.984375 -5.359375 C 7.742188 -5.597656 7.414062 -5.800781 7 -5.96875 C 6.59375 -6.144531 5.960938 -6.375 5.109375 -6.65625 C 4.328125 -6.90625 3.644531 -7.195312 3.0625 -7.53125 C 2.488281 -7.875 2.019531 -8.335938 1.65625 -8.921875 C 1.289062 -9.515625 1.109375 -10.253906 1.109375 -11.140625 C 1.109375 -12.234375 1.398438 -13.144531 1.984375 -13.875 C 2.566406 -14.613281 3.316406 -15.160156 4.234375 -15.515625 C 5.148438 -15.867188 6.125 -16.046875 7.15625 -16.046875 C 8.070312 -16.046875 8.988281 -15.878906 9.90625 -15.546875 C 10.832031 -15.222656 11.628906 -14.75 12.296875 -14.125 L 9.890625 -11.578125 C 9.578125 -11.984375 9.15625 -12.3125 8.625 -12.5625 C 8.101562 -12.8125 7.59375 -12.9375 7.09375 -12.9375 C 6.507812 -12.9375 6 -12.8125 5.5625 -12.5625 C 5.125 -12.320312 4.90625 -11.921875 4.90625 -11.359375 C 4.90625 -11.035156 5 -10.765625 5.1875 -10.546875 C 5.375 -10.328125 5.628906 -10.144531 5.953125 -10 C 6.285156 -9.863281 6.738281 -9.707031 7.3125 -9.53125 C 8.257812 -9.25 9.066406 -8.941406 9.734375 -8.609375 C 10.410156 -8.273438 10.988281 -7.796875 11.46875 -7.171875 C 11.945312 -6.554688 12.1875 -5.769531 12.1875 -4.8125 C 12.1875 -3.664062 11.910156 -2.703125 11.359375 -1.921875 C 10.804688 -1.140625 10.070312 -0.554688 9.15625 -0.171875 C 8.25 0.203125 7.257812 0.390625 6.1875 0.390625 Z M 6.1875 0.390625 "/></g></g></g><g fill="#ffffff" fill-opacity="1"><g transform="translate(67.993015, 144.283072)"><g/></g></g><g fill="#ffffff" fill-opacity="1"><g transform="translate(72.944733, 144.283072)"><g><path d="M 1.609375 0 L 1.609375 -15.65625 L 7.359375 -15.65625 C 9.210938 -15.65625 10.695312 -15.273438 11.8125 -14.515625 C 12.925781 -13.753906 13.484375 -12.523438 13.484375 -10.828125 C 13.484375 -9.679688 13.203125 -8.738281 12.640625 -8 C 12.085938 -7.257812 11.34375 -6.722656 10.40625 -6.390625 C 9.476562 -6.066406 8.4375 -5.90625 7.28125 -5.90625 L 5.390625 -5.90625 L 5.390625 0 Z M 6.984375 -8.90625 C 7.796875 -8.90625 8.453125 -9.050781 8.953125 -9.34375 C 9.453125 -9.644531 9.703125 -10.132812 9.703125 -10.8125 C 9.703125 -11.5 9.457031 -11.96875 8.96875 -12.21875 C 8.488281 -12.476562 7.847656 -12.609375 7.046875 -12.609375 L 5.390625 -12.609375 L 5.390625 -8.90625 Z M 6.984375 -8.90625 "/></g></g></g><g fill="#ffffff" fill-opacity="1"><g transform="translate(86.518217, 144.283072)"><g><path d="M 1.609375 0 L 1.609375 -15.65625 L 7.578125 -15.65625 C 8.671875 -15.65625 9.660156 -15.5 10.546875 -15.1875 C 11.441406 -14.875 12.171875 -14.367188 12.734375 -13.671875 C 13.296875 -12.972656 13.578125 -12.054688 13.578125 -10.921875 C 13.578125 -9.890625 13.285156 -9.003906 12.703125 -8.265625 C 12.128906 -7.523438 11.335938 -7.003906 10.328125 -6.703125 L 14.421875 0 L 10 0 L 6.609375 -6.21875 L 5.328125 -6.21875 L 5.328125 0 Z M 7.09375 -8.953125 C 7.863281 -8.953125 8.515625 -9.085938 9.046875 -9.359375 C 9.578125 -9.628906 9.84375 -10.128906 9.84375 -10.859375 C 9.84375 -11.515625 9.597656 -11.96875 9.109375 -12.21875 C 8.617188 -12.476562 8.019531 -12.609375 7.3125 -12.609375 L 5.3125 -12.609375 L 5.3125 -8.953125 Z M 7.09375 -8.953125 "/></g></g></g><g fill="#ffffff" fill-opacity="1"><g transform="translate(100.600168, 144.283072)"><g><path d="M 9.390625 0.421875 C 7.773438 0.421875 6.320312 0.0703125 5.03125 -0.625 C 3.738281 -1.332031 2.722656 -2.316406 1.984375 -3.578125 C 1.253906 -4.835938 0.890625 -6.273438 0.890625 -7.890625 C 0.890625 -9.523438 1.253906 -10.960938 1.984375 -12.203125 C 2.710938 -13.441406 3.722656 -14.394531 5.015625 -15.0625 C 6.316406 -15.738281 7.773438 -16.078125 9.390625 -16.078125 C 11.023438 -16.078125 12.488281 -15.738281 13.78125 -15.0625 C 15.070312 -14.394531 16.085938 -13.441406 16.828125 -12.203125 C 17.566406 -10.960938 17.9375 -9.523438 17.9375 -7.890625 C 17.9375 -6.273438 17.566406 -4.835938 16.828125 -3.578125 C 16.085938 -2.316406 15.066406 -1.332031 13.765625 -0.625 C 12.472656 0.0703125 11.015625 0.421875 9.390625 0.421875 Z M 9.390625 -3.03125 C 10.265625 -3.03125 11.039062 -3.234375 11.71875 -3.640625 C 12.394531 -4.054688 12.925781 -4.632812 13.3125 -5.375 C 13.695312 -6.125 13.890625 -6.960938 13.890625 -7.890625 C 13.890625 -8.785156 13.695312 -9.597656 13.3125 -10.328125 C 12.925781 -11.066406 12.394531 -11.640625 11.71875 -12.046875 C 11.039062 -12.460938 10.265625 -12.671875 9.390625 -12.671875 C 8.523438 -12.671875 7.753906 -12.460938 7.078125 -12.046875 C 6.398438 -11.640625 5.875 -11.070312 5.5 -10.34375 C 5.125 -9.625 4.9375 -8.804688 4.9375 -7.890625 C 4.9375 -6.960938 5.125 -6.125 5.5 -5.375 C 5.875 -4.632812 6.398438 -4.054688 7.078125 -3.640625 C 7.753906 -3.234375 8.523438 -3.03125 9.390625 -3.03125 Z M 9.390625 -3.03125 "/></g></g></g><g fill="#ffffff" fill-opacity="1"><g transform="translate(118.838252, 144.283072)"><g><path d="M 5.015625 0.421875 C 4.160156 0.421875 3.382812 0.265625 2.6875 -0.046875 C 1.988281 -0.359375 1.398438 -0.789062 0.921875 -1.34375 C 0.453125 -1.894531 0.125 -2.53125 -0.0625 -3.25 L 3.265625 -4.375 C 3.367188 -3.96875 3.554688 -3.632812 3.828125 -3.375 C 4.109375 -3.125 4.445312 -3 4.84375 -3 C 5.414062 -3 5.8125 -3.195312 6.03125 -3.59375 C 6.257812 -4 6.375 -4.578125 6.375 -5.328125 L 6.375 -15.65625 L 10.171875 -15.65625 L 10.171875 -5.34375 C 10.171875 -4.375 10.023438 -3.460938 9.734375 -2.609375 C 9.453125 -1.753906 8.925781 -1.035156 8.15625 -0.453125 C 7.394531 0.128906 6.347656 0.421875 5.015625 0.421875 Z M 5.015625 0.421875 "/></g></g></g><g fill="#ffffff" fill-opacity="1"><g transform="translate(129.957851, 144.283072)"><g><path d="M 12.53125 0 L 1.609375 0 L 1.609375 -15.65625 L 12.140625 -15.65625 L 12.140625 -12.453125 L 5.265625 -12.453125 L 5.265625 -9.5 L 11.765625 -9.5 L 11.765625 -6.484375 L 5.265625 -6.484375 L 5.265625 -3.234375 L 12.53125 -3.234375 Z M 12.53125 0 "/></g></g></g><g fill="#ffffff" fill-opacity="1"><g transform="translate(142.801801, 144.283072)"><g><path d="M 9.3125 0.421875 C 7.71875 0.421875 6.28125 0.0703125 5 -0.625 C 3.71875 -1.332031 2.710938 -2.3125 1.984375 -3.5625 C 1.253906 -4.8125 0.890625 -6.238281 0.890625 -7.84375 C 0.890625 -9.476562 1.257812 -10.921875 2 -12.171875 C 2.75 -13.421875 3.765625 -14.382812 5.046875 -15.0625 C 6.335938 -15.738281 7.78125 -16.078125 9.375 -16.078125 C 10.507812 -16.078125 11.609375 -15.875 12.671875 -15.46875 C 13.742188 -15.0625 14.597656 -14.5 15.234375 -13.78125 L 12.671875 -11.203125 C 12.328125 -11.679688 11.867188 -12.039062 11.296875 -12.28125 C 10.734375 -12.519531 10.132812 -12.640625 9.5 -12.640625 C 8.632812 -12.640625 7.859375 -12.429688 7.171875 -12.015625 C 6.484375 -11.609375 5.945312 -11.039062 5.5625 -10.3125 C 5.1875 -9.582031 5 -8.757812 5 -7.84375 C 5 -6.90625 5.1875 -6.070312 5.5625 -5.34375 C 5.9375 -4.625 6.460938 -4.0625 7.140625 -3.65625 C 7.816406 -3.25 8.582031 -3.046875 9.4375 -3.046875 C 10.164062 -3.046875 10.816406 -3.1875 11.390625 -3.46875 C 11.960938 -3.757812 12.414062 -4.148438 12.75 -4.640625 L 15.390625 -2.171875 C 14.679688 -1.335938 13.8125 -0.695312 12.78125 -0.25 C 11.75 0.195312 10.59375 0.421875 9.3125 0.421875 Z M 9.3125 0.421875 "/></g></g></g><g fill="#ffffff" fill-opacity="1"><g transform="translate(157.613287, 144.283072)"><g><path d="M 8.3125 0 L 4.53125 0 L 4.53125 -12.421875 L 0.109375 -12.421875 L 0.109375 -15.65625 L 12.734375 -15.65625 L 12.734375 -12.421875 L 8.3125 -12.421875 Z M 8.3125 0 "/></g></g></g><g fill="#ffffff" fill-opacity="1"><g transform="translate(169.882451, 144.283072)"><g><path d="M 6.1875 0.390625 C 5.050781 0.390625 3.957031 0.191406 2.90625 -0.203125 C 1.863281 -0.597656 1.003906 -1.148438 0.328125 -1.859375 L 2.8125 -4.375 C 3.1875 -3.882812 3.6875 -3.484375 4.3125 -3.171875 C 4.945312 -2.867188 5.570312 -2.71875 6.1875 -2.71875 C 6.820312 -2.71875 7.34375 -2.851562 7.75 -3.125 C 8.15625 -3.394531 8.359375 -3.828125 8.359375 -4.421875 C 8.359375 -4.804688 8.234375 -5.117188 7.984375 -5.359375 C 7.742188 -5.597656 7.414062 -5.800781 7 -5.96875 C 6.59375 -6.144531 5.960938 -6.375 5.109375 -6.65625 C 4.328125 -6.90625 3.644531 -7.195312 3.0625 -7.53125 C 2.488281 -7.875 2.019531 -8.335938 1.65625 -8.921875 C 1.289062 -9.515625 1.109375 -10.253906 1.109375 -11.140625 C 1.109375 -12.234375 1.398438 -13.144531 1.984375 -13.875 C 2.566406 -14.613281 3.316406 -15.160156 4.234375 -15.515625 C 5.148438 -15.867188 6.125 -16.046875 7.15625 -16.046875 C 8.070312 -16.046875 8.988281 -15.878906 9.90625 -15.546875 C 10.832031 -15.222656 11.628906 -14.75 12.296875 -14.125 L 9.890625 -11.578125 C 9.578125 -11.984375 9.15625 -12.3125 8.625 -12.5625 C 8.101562 -12.8125 7.59375 -12.9375 7.09375 -12.9375 C 6.507812 -12.9375 6 -12.8125 5.5625 -12.5625 C 5.125 -12.320312 4.90625 -11.921875 4.90625 -11.359375 C 4.90625 -11.035156 5 -10.765625 5.1875 -10.546875 C 5.375 -10.328125 5.628906 -10.144531 5.953125 -10 C 6.285156 -9.863281 6.738281 -9.707031 7.3125 -9.53125 C 8.257812 -9.25 9.066406 -8.941406 9.734375 -8.609375 C 10.410156 -8.273438 10.988281 -7.796875 11.46875 -7.171875 C 11.945312 -6.554688 12.1875 -5.769531 12.1875 -4.8125 C 12.1875 -3.664062 11.910156 -2.703125 11.359375 -1.921875 C 10.804688 -1.140625 10.070312 -0.554688 9.15625 -0.171875 C 8.25 0.203125 7.257812 0.390625 6.1875 0.390625 Z M 6.1875 0.390625 "/></g></g></g></svg>